<?xml version="1.0" standalone="no"?>
<!DOCTYPE svg PUBLIC "-//W3C//DTD SVG 20010904//EN"
 "http://www.w3.org/TR/2001/REC-SVG-20010904/DTD/svg10.dtd">
<svg version="1.0" xmlns="http://www.w3.org/2000/svg"
 width="300.000000pt" height="300.000000pt" viewBox="0 0 300.000000 300.000000"
 preserveAspectRatio="xMidYMid meet">
<metadata>
Created by potrace 1.10, written by Peter Selinger 2001-2011
</metadata>
<g transform="translate(0.000000,300.000000) scale(0.100000,-0.100000)"
fill="#000000" stroke="none">
<path d="M1041 2235 c-68 -35 -133 -67 -144 -71 -53 -17 -143 -94 -272 -234
-77 -83 -161 -166 -187 -185 -26 -19 -55 -46 -64 -60 -27 -42 -35 -104 -18
-154 8 -24 12 -46 10 -49 -15 -14 -175 17 -202 39 -8 6 -17 1 -28 -15 -9 -14
-16 -27 -16 -28 0 -2 22 -2 50 -1 28 0 53 -4 57 -10 4 -7 -8 -8 -38 -4 -51 7
-84 -6 -59 -23 8 -5 26 -8 40 -5 14 3 52 -5 89 -20 36 -14 75 -25 88 -25 16 0
27 -8 34 -26 5 -15 22 -43 38 -63 15 -20 43 -66 60 -103 18 -36 43 -75 54 -86
12 -10 74 -49 137 -86 69 -40 131 -85 155 -111 33 -37 47 -45 80 -47 22 -1 50
-8 63 -16 12 -8 25 -12 29 -9 3 4 14 2 24 -3 10 -6 20 -6 23 -1 3 5 -17 14
-44 21 -27 7 -48 15 -46 18 2 4 -10 8 -27 9 -39 3 -58 22 -97 98 l-31 60 5
-50 5 -50 -23 49 c-12 27 -26 45 -29 39 -5 -8 -14 -8 -31 0 -13 7 -22 15 -20
18 4 7 -57 39 -75 39 -6 0 -18 11 -27 25 -9 14 -22 25 -29 25 -6 0 -24 17 -38
37 -25 35 -27 53 -6 53 6 0 8 -4 4 -9 -3 -5 -1 -12 4 -15 5 -3 12 1 15 9 4 11
-3 19 -22 26 -53 19 -72 32 -97 70 -14 21 -25 42 -25 46 0 20 -49 61 -80 67
-19 4 -48 13 -65 21 l-30 15 46 -5 c25 -3 59 -1 75 6 16 6 50 11 77 10 50 -1
73 18 47 42 -9 8 -11 8 -7 1 4 -7 1 -16 -6 -22 -19 -15 -45 -10 -50 10 -4 14
-1 17 12 13 11 -3 25 3 37 17 13 16 14 19 2 10 -9 -7 -28 -11 -42 -10 -26 4
-48 18 -28 18 7 0 12 7 12 15 0 8 -4 15 -10 15 -12 0 -9 22 5 32 5 4 9 19 10
34 0 23 6 30 33 38 17 5 32 13 32 17 0 5 9 9 21 9 11 0 18 4 14 9 -9 15 16 25
52 22 24 -2 33 2 33 13 0 8 9 18 20 21 11 3 20 11 20 16 0 12 -17 12 -25 -1
-3 -5 -17 -10 -31 -10 -14 0 -22 -4 -19 -10 3 -5 1 -10 -4 -10 -17 0 -13 27 7
51 9 12 36 41 60 65 23 24 42 48 42 53 0 6 9 11 20 11 13 0 18 5 14 15 -4 9 3
19 20 26 14 7 26 15 26 18 0 20 106 111 129 111 6 0 29 11 51 25 21 14 45 26
52 27 7 2 15 5 18 8 3 3 32 19 64 35 58 27 61 28 89 12 16 -10 35 -17 43 -17
9 0 12 -4 9 -10 -3 -5 -1 -10 5 -10 6 0 21 -11 34 -23 37 -37 97 -57 150 -51
l46 6 0 -35 c0 -35 -24 -126 -41 -160 -5 -10 -7 -22 -4 -27 3 -4 0 -10 -7 -12
-15 -5 56 -74 94 -90 14 -7 24 -16 22 -20 -3 -5 13 -7 35 -5 46 4 46 4 27 -15
-7 -8 -25 -35 -39 -61 -14 -27 -29 -47 -33 -47 -5 1 -11 -7 -15 -17 -4 -10 -8
-14 -8 -9 -1 5 -17 -8 -36 -28 -19 -21 -35 -34 -35 -29 0 4 -7 -3 -16 -15 -8
-12 -19 -20 -24 -17 -4 3 -11 -2 -14 -11 -9 -25 -7 -27 10 -9 9 8 24 13 33 10
11 -3 28 6 46 25 16 16 33 30 39 30 5 0 -1 -11 -14 -25 -44 -47 -13 -35 39 16
29 28 68 57 87 65 19 8 32 19 29 23 -3 5 4 7 15 4 18 -5 25 -15 21 -36 -1 -5
3 -6 9 -2 5 3 10 12 10 20 0 12 55 40 73 36 4 0 7 3 7 9 0 5 -13 8 -30 7 -16
-1 -30 -5 -30 -9 0 -13 -38 -18 -64 -9 -22 9 -30 6 -55 -18 -16 -15 -36 -31
-45 -34 -9 -4 -16 -11 -16 -16 0 -5 -7 -12 -15 -15 -24 -9 -9 13 79 108 43 47
82 84 86 81 5 -3 11 -19 15 -35 4 -16 11 -33 17 -37 11 -6 10 -2 -9 45 -3 8 4
12 21 12 32 0 35 20 4 21 -13 1 -26 1 -31 0 -13 -2 15 35 37 49 18 11 23 9 48
-21 35 -42 35 -51 1 -42 l-28 6 30 -25 c35 -30 45 -28 39 9 -3 15 1 30 8 36 9
6 8 7 -5 3 -12 -4 -21 1 -27 17 -5 12 -9 18 -9 14 -1 -5 -8 -1 -17 8 -16 15
-14 19 22 56 21 21 42 38 46 37 4 -2 20 -27 35 -57 16 -30 35 -57 43 -59 12
-4 13 -3 3 10 -7 8 -10 18 -6 21 3 4 1 7 -7 7 -10 0 -10 3 0 15 11 13 14 13
27 0 8 -8 19 -15 24 -15 5 0 9 -7 9 -15 0 -15 30 -35 52 -35 7 0 2 8 -12 16
-14 9 -36 31 -50 49 -23 31 -26 32 -43 17 -13 -12 -20 -13 -29 -4 -7 7 -9 12
-5 12 4 0 -1 10 -13 22 -22 24 -22 36 3 52 12 8 21 5 36 -13 12 -13 21 -28 21
-33 0 -4 4 -8 10 -8 14 0 0 33 -24 53 -21 17 -21 17 37 72 32 30 55 55 52 55
-4 0 12 23 35 50 23 28 46 50 51 50 14 0 10 -26 -6 -40 -18 -15 -20 -30 -3
-30 6 0 8 3 5 6 -4 4 2 15 13 24 17 14 18 19 6 35 -19 26 -38 15 -86 -49 -22
-31 -46 -56 -52 -56 -6 0 -9 -3 -6 -6 5 -5 -19 -29 -116 -118 -22 -20 -32 -23
-42 -15 -19 16 -17 29 7 50 20 17 20 19 3 44 -20 30 -31 27 -14 -5 10 -18 8
-24 -7 -36 -29 -22 -36 -17 -30 21 6 37 -7 41 -16 5 -5 -18 27 -70 55 -90 11
-8 -40 -60 -55 -56 -6 1 -8 1 -4 -2 9 -5 -21 -42 -34 -42 -5 0 -14 10 -20 22
-9 17 -9 24 4 33 9 7 12 16 8 24 -6 10 -10 8 -15 -5 -6 -16 -9 -16 -17 -4 -7
11 -8 6 -3 -15 4 -16 11 -34 15 -39 13 -15 11 -36 -5 -52 -20 -20 -23 -19 -65
26 -28 31 -48 42 -77 46 -35 4 -37 3 -14 -7 14 -6 35 -15 48 -20 32 -12 23
-33 -15 -37 -21 -2 -35 3 -45 15 -7 10 -25 24 -40 30 -33 15 -35 33 -8 58 15
14 17 22 9 37 -9 16 -7 20 10 25 12 3 21 12 21 20 0 10 6 13 16 9 17 -7 11 8
-17 39 -18 20 -18 21 7 48 25 27 49 29 79 7 6 -4 18 -10 27 -13 15 -5 16 -4 6
13 -16 24 -3 38 37 40 49 3 57 1 51 -15 -3 -10 1 -15 14 -15 10 0 33 -8 52
-17 18 -9 41 -20 50 -25 10 -4 28 -4 42 1 13 6 26 7 29 5 3 -3 21 12 41 32 20
20 34 39 32 41 -8 8 -33 -9 -48 -34 -23 -38 -81 -43 -115 -8 -14 14 -29 25
-34 25 -17 0 -69 53 -69 71 0 27 -23 33 -62 16 -84 -37 -199 -68 -215 -58 -12
7 -21 5 -30 -7 -11 -15 -14 -15 -22 -2 -6 8 -13 12 -16 8 -7 -7 -100 59 -100
71 -1 18 -18 31 -29 22 -9 -8 -18 -6 -32 3 -26 20 -9 34 45 38 42 3 44 2 56
-32 7 -20 20 -37 30 -39 18 -3 18 -2 2 20 -10 13 -20 31 -24 39 -10 24 -25 30
-73 29 -35 0 -71 -14 -169 -64z"/>
<path d="M2100 2143 c0 -4 16 -19 35 -32 27 -18 33 -27 24 -37 -7 -9 -7 -18 0
-31 9 -16 10 -16 11 5 0 12 6 22 14 22 10 0 6 9 -12 29 -29 30 -72 57 -72 44z"/>
<path d="M975 2060 c-6 -18 -16 -24 -36 -22 -4 1 -10 -10 -13 -23 -4 -14 -13
-25 -22 -25 -8 0 -12 -4 -9 -10 3 -5 -3 -15 -15 -22 -11 -7 -20 -17 -20 -23 0
-10 -56 -86 -87 -117 -13 -14 -14 -18 -2 -18 8 -1 1 -8 -14 -16 -16 -9 -25
-20 -21 -26 5 -8 1 -9 -12 -4 -10 4 -15 4 -11 0 10 -11 -13 -34 -34 -34 -27 0
-23 -15 8 -29 20 -9 29 -9 37 0 8 9 8 10 -1 5 -7 -4 -21 -2 -30 3 -16 9 -15
11 7 12 14 1 28 1 32 0 4 0 10 10 14 24 3 14 11 25 18 25 6 0 27 23 46 51 19
28 47 66 63 84 15 18 27 35 27 39 0 3 7 14 16 24 30 34 84 122 75 122 -5 0
-13 -9 -16 -20z"/>
<path d="M2316 2073 c-3 -3 -6 -16 -6 -27 0 -12 -18 -36 -41 -56 -22 -19 -72
-65 -111 -102 l-71 -67 -25 19 c-14 11 -30 20 -37 20 -14 0 -27 25 -18 34 3 3
21 -1 40 -9 41 -17 53 -19 53 -6 0 5 -16 12 -35 15 -19 4 -35 11 -35 15 0 5
-8 8 -17 7 -10 0 -18 5 -19 12 -3 25 -4 26 -16 14 -10 -10 -10 -15 1 -21 7 -5
13 -24 13 -44 0 -28 3 -34 18 -30 18 5 70 -23 70 -37 0 -13 -42 -55 -52 -52
-5 1 -7 -2 -3 -8 9 -14 -44 -76 -61 -72 -9 2 -11 -3 -7 -14 5 -13 2 -15 -15
-9 -14 4 -22 2 -22 -5 0 -6 5 -8 10 -5 6 3 10 1 10 -4 0 -22 -19 -10 -34 21
-9 17 -16 35 -16 40 0 4 -9 17 -20 28 -11 11 -20 16 -20 12 0 -4 5 -13 12 -20
8 -8 8 -12 1 -12 -6 0 -13 -9 -16 -20 -3 -10 -2 -19 2 -18 24 3 39 -5 49 -27
15 -32 15 -48 2 -40 -5 3 -10 1 -10 -5 0 -7 -8 -9 -20 -5 -11 4 -20 2 -20 -4
0 -6 9 -11 20 -11 14 0 18 -5 13 -17 -9 -22 100 95 176 192 85 107 143 166
158 161 7 -3 10 1 6 10 -3 7 -1 14 4 14 5 0 38 28 73 61 36 34 54 56 40 49
-22 -12 -24 -12 -12 2 12 16 2 34 -12 21z"/>
<path d="M2383 2052 c10 -10 17 -25 17 -33 0 -33 25 -69 43 -63 27 8 47 -14
47 -53 0 -30 -2 -34 -15 -23 -12 10 -15 9 -15 -6 0 -11 5 -26 10 -34 9 -13 12
-12 25 4 14 19 15 19 35 1 11 -10 20 -32 21 -49 0 -17 3 -25 6 -17 13 33 36
50 55 40 10 -5 18 -16 18 -23 0 -28 -50 -101 -77 -113 -44 -19 -153 -41 -174
-36 -10 3 -19 1 -19 -5 0 -5 -9 -12 -19 -15 -15 -3 -21 1 -24 17 -4 19 -4 19
-6 1 -2 -25 -70 -60 -100 -50 -11 3 -21 2 -21 -3 0 -5 -16 -13 -35 -19 -26 -8
-35 -8 -35 0 0 9 -2 9 -8 1 -10 -17 -74 -32 -162 -39 -41 -4 -106 -13 -145
-20 -38 -8 -146 -17 -238 -20 -93 -3 -173 -8 -178 -11 -6 -3 -75 -6 -154 -6
-87 -1 -142 -5 -139 -10 4 -5 16 -7 28 -4 16 4 23 1 23 -9 0 -8 -3 -12 -7 -10
-3 2 -7 -6 -7 -18 -2 -17 0 -19 7 -7 5 8 10 10 10 5 0 -6 10 -11 21 -12 21 -2
21 -1 3 13 -16 13 -16 15 -2 10 12 -3 15 -1 11 10 -4 11 0 15 13 12 11 -2 22
-7 26 -12 4 -6 14 -4 24 5 22 18 124 19 142 2 18 -17 31 -16 38 2 6 15 35 21
47 9 11 -12 -5 -33 -21 -28 -13 4 -12 2 3 -11 12 -9 29 -14 43 -10 15 4 21 1
20 -7 -2 -8 9 -14 24 -16 l28 -3 -16 36 c-8 20 -12 40 -9 45 3 5 32 9 63 9 31
-1 85 2 118 5 52 5 64 2 79 -14 9 -10 14 -24 9 -31 -4 -8 -3 -10 4 -5 7 4 30
-3 52 -15 l40 -22 18 21 c22 25 62 30 62 8 0 -8 5 -18 12 -22 7 -5 8 -3 3 6
-6 10 -4 12 9 7 19 -7 53 19 41 31 -3 4 -11 -1 -16 -10 -8 -15 -13 -16 -29 -5
-11 6 -20 17 -20 24 0 24 -38 13 -63 -16 l-25 -30 -44 28 c-82 52 -70 66 70
78 48 4 62 2 63 -8 1 -8 2 -21 3 -29 1 -16 29 -15 34 1 2 5 14 9 27 9 13 0 27
5 30 10 9 14 -16 12 -47 -4 -23 -12 -27 -12 -33 2 -8 22 2 28 65 40 30 5 80
16 111 23 51 11 58 11 82 -7 17 -11 25 -26 23 -36 -2 -10 0 -18 5 -18 5 0 9 7
9 15 0 8 9 15 20 15 12 0 20 -7 20 -17 0 -14 2 -15 9 -5 4 7 12 12 17 11 37
-7 19 5 -26 17 -30 8 -62 22 -70 30 -24 24 -17 27 165 71 82 19 115 20 115 1
0 -22 -44 -64 -93 -88 -50 -24 -64 -48 -25 -42 41 7 13 -84 -29 -93 -37 -8
-93 -36 -93 -47 0 -5 -19 -28 -41 -52 -29 -30 -48 -42 -60 -39 -16 5 -19 0
-19 -31 0 -81 -65 -152 -99 -110 -15 18 -17 18 -33 2 -9 -9 -21 -25 -27 -36
-6 -11 -27 -26 -46 -32 -41 -13 -74 -2 -155 54 -88 61 -100 63 -100 19 0 -22
-3 -24 -32 -18 -21 4 -51 25 -80 56 -26 27 -54 49 -63 49 -22 0 -19 -18 5 -25
25 -8 25 -13 0 -45 -31 -40 -23 -49 9 -10 25 29 31 32 45 21 9 -7 16 -22 16
-32 0 -14 7 -19 25 -19 22 0 24 -3 16 -19 -6 -10 -9 -31 -8 -47 2 -27 0 -29
-38 -30 -22 -1 -47 -4 -56 -8 -13 -5 -21 1 -33 25 -14 27 -14 42 -6 92 8 42 8
62 0 72 -9 10 -4 21 18 46 25 28 32 31 45 20 9 -7 13 -19 10 -27 -3 -10 0 -12
10 -8 9 3 25 1 36 -6 18 -9 19 -14 10 -31 -5 -11 -9 -28 -7 -37 3 -15 6 -14
26 6 12 12 30 22 40 22 10 0 4 7 -15 16 -38 19 -41 29 -13 46 25 16 25 23 0
58 -17 24 -18 29 -5 40 9 7 26 10 41 6 17 -5 23 -3 19 4 -3 5 -19 10 -35 10
-27 0 -46 22 -35 40 8 12 108 -13 113 -29 3 -9 0 -11 -8 -6 -10 6 -12 4 -7 -8
4 -10 1 -17 -6 -18 -7 0 -1 -5 12 -10 13 -5 29 -8 35 -5 6 2 3 5 -7 5 -10 1
-17 7 -14 14 6 20 31 14 42 -10 5 -13 13 -23 18 -23 4 0 0 -14 -9 -31 -11 -22
-12 -30 -3 -27 7 2 13 12 15 22 4 26 6 26 38 1 27 -22 29 -26 18 -50 -10 -21
-15 -24 -31 -15 -11 5 -38 9 -61 8 -30 -1 -45 3 -52 15 -13 24 -25 21 -23 -5
2 -13 8 -22 15 -20 7 1 18 -2 24 -8 7 -5 16 -7 20 -3 4 4 11 2 15 -5 8 -13 41
-6 41 9 0 4 7 6 15 3 19 -8 19 -33 0 -54 -13 -15 -13 -17 0 -17 8 0 15 6 15
13 0 7 6 19 13 26 6 7 12 20 12 28 0 28 39 21 79 -15 22 -19 41 -33 43 -31 7
7 -9 36 -21 36 -6 0 -26 14 -44 31 -25 23 -31 36 -26 52 5 17 4 20 -6 10 -17
-16 -82 31 -73 53 3 10 0 12 -10 9 -17 -7 -31 21 -16 31 6 3 16 1 22 -5 14
-14 27 -14 27 -1 0 13 -58 29 -170 46 -52 8 -110 17 -129 20 -21 4 -31 2 -27
-4 3 -6 25 -13 47 -17 l42 -7 -6 -49 c-5 -37 -3 -47 7 -43 20 8 26 -33 10 -64
-8 -15 -14 -21 -14 -13 0 8 -3 12 -6 8 -4 -3 -26 7 -50 23 -23 17 -46 30 -51
30 -5 0 -24 13 -43 30 -19 16 -40 29 -47 30 -6 0 -15 9 -18 20 -3 11 -12 20
-20 20 -7 0 -16 6 -18 13 -4 9 -6 9 -6 -1 -1 -7 -6 -10 -12 -6 -7 4 -10 -1 -7
-12 2 -10 16 -25 31 -32 16 -8 31 -20 34 -28 3 -8 11 -14 17 -14 7 0 26 -12
43 -28 22 -19 29 -32 23 -42 -4 -8 -11 -35 -15 -60 -4 -25 -14 -53 -23 -62
-14 -16 -14 -18 2 -18 11 0 16 -6 14 -17 -2 -10 -8 -17 -14 -16 -5 1 -10 -10
-11 -24 -1 -19 1 -22 8 -12 7 12 10 12 21 0 11 -12 10 -13 -2 -7 -8 4 -4 -2
10 -14 14 -12 18 -18 10 -14 -9 4 -12 3 -7 -2 5 -5 12 -9 15 -9 29 -2 62 -18
62 -30 0 -8 4 -15 10 -15 5 0 7 6 4 13 -4 11 8 13 56 12 33 -1 60 2 60 7 0 4
-7 8 -15 8 -20 0 -19 17 2 29 14 7 24 3 46 -22 17 -20 25 -25 21 -13 -6 15 -4
18 9 13 9 -3 19 -2 22 2 9 16 -25 34 -65 35 -23 0 -42 6 -45 14 -6 16 16 40
31 35 6 -2 14 5 17 17 6 24 27 27 27 4 0 -10 6 -14 14 -11 8 3 17 -1 20 -9 3
-8 12 -14 21 -14 8 0 15 -7 15 -15 0 -10 10 -15 30 -15 17 0 30 -4 30 -10 0
-5 8 -10 19 -10 10 0 24 -6 30 -14 9 -10 6 -17 -13 -30 -14 -9 -30 -16 -36
-16 -5 0 -10 -4 -10 -10 0 -5 -6 -10 -13 -10 -7 0 -20 -8 -28 -17 -9 -10 -25
-25 -35 -34 -33 -28 -80 -83 -64 -75 8 4 4 -2 -10 -13 -14 -12 -33 -19 -42
-17 -10 2 -18 0 -18 -5 0 -5 14 -9 31 -9 21 0 37 8 52 26 38 46 87 94 96 94 5
0 16 6 24 14 21 22 100 54 167 70 76 18 88 28 88 72 0 19 7 43 15 52 9 9 21
28 27 42 24 53 69 110 88 110 4 0 23 16 42 35 19 19 39 35 46 35 24 0 84 75
169 212 136 219 195 277 316 306 40 10 68 21 62 25 -6 4 -22 3 -35 -2 -14 -5
-75 -6 -139 -3 l-114 7 -3 28 c-2 19 -9 27 -22 27 -10 0 -21 4 -25 9 -3 5 -31
17 -63 26 -70 21 -80 28 -88 71 -5 25 -11 34 -27 34 -19 0 -19 -1 -4 -18z
m-853 -601 c0 -20 -36 -36 -46 -20 -6 11 17 38 34 39 6 0 12 -8 12 -19z m557
-357 c-3 -3 -2 -17 3 -30 9 -21 6 -24 -33 -35 -23 -7 -46 -12 -51 -10 -4 1
-14 -3 -21 -9 -9 -8 -14 -6 -19 5 -3 9 -2 13 3 10 5 -3 13 0 16 6 4 5 14 8 22
5 8 -3 11 -2 8 4 -3 5 5 14 17 21 13 7 27 18 31 25 4 8 13 14 19 14 6 0 9 -3
5 -6z"/>
<path d="M1592 2019 c-10 -16 -20 -19 -45 -15 l-32 6 30 -14 c26 -13 31 -13
41 0 6 8 16 14 23 14 6 0 11 7 11 15 0 21 -13 19 -28 -6z"/>
<path d="M1007 1999 c-4 -15 -2 -19 9 -15 13 5 19 -6 15 -27 -1 -5 3 -6 8 -3
11 7 -6 66 -19 66 -4 0 -10 -9 -13 -21z"/>
<path d="M1620 1971 c0 -5 -3 -18 -7 -28 -3 -10 -3 -15 2 -11 4 4 14 3 22 -3
14 -12 16 -6 7 29 -6 21 -24 31 -24 13z"/>
<path d="M2043 1956 c-26 -12 -32 -32 -7 -22 9 3 27 6 40 6 13 0 24 4 24 9 0
14 -33 18 -57 7z"/>
<path d="M2317 1925 l-27 -24 36 -7 c47 -9 66 9 39 36 -20 19 -20 19 -48 -5z"/>
<path d="M1067 1931 c-16 -6 -16 -8 3 -24 12 -10 19 -21 17 -25 -2 -4 4 -15
15 -24 17 -17 18 -17 18 12 0 19 -5 30 -14 30 -8 0 -16 8 -18 19 -2 13 -8 16
-21 12z"/>
<path d="M977 1864 c-4 -4 0 -15 9 -25 9 -10 14 -25 11 -34 -4 -8 -2 -15 4
-15 6 0 9 -6 6 -14 -5 -13 10 -36 24 -36 12 0 1 44 -11 48 -7 3 -7 9 1 18 6 8
8 14 3 14 -4 0 1 7 12 15 10 8 14 15 7 15 -6 0 -15 -4 -18 -10 -10 -16 -25
-11 -33 10 -4 12 -11 18 -15 14z"/>
<path d="M1265 1839 c-5 -14 -13 -19 -25 -16 -14 3 -17 1 -13 -11 4 -10 2 -13
-5 -8 -8 4 -10 2 -6 -7 3 -8 -2 -17 -10 -20 -9 -4 -16 -13 -16 -22 0 -8 -4
-15 -10 -15 -5 0 -10 -5 -10 -10 0 -20 -84 -139 -93 -133 -6 3 -7 1 -3 -5 9
-16 42 1 57 29 6 11 19 31 30 43 24 28 119 178 119 188 0 15 -9 8 -15 -13z"/>
<path d="M2192 1846 c18 -17 58 -30 58 -18 0 9 -43 32 -61 32 -6 0 -4 -6 3
-14z"/>
<path d="M1055 1814 c-18 -43 -18 -44 -6 -44 5 0 12 14 16 30 4 17 11 28 16
25 5 -4 6 1 3 9 -9 23 -12 20 -29 -20z"/>
<path d="M1320 1809 c11 -39 15 -43 31 -34 8 6 7 10 -5 17 -9 5 -16 15 -16 23
0 8 -4 16 -9 20 -6 3 -6 -7 -1 -26z"/>
<path d="M2305 1820 c-3 -5 0 -10 8 -10 8 0 26 -10 41 -21 15 -12 29 -19 32
-16 3 3 -7 14 -23 24 -45 31 -51 34 -58 23z"/>
<path d="M928 1815 c-4 -4 -5 -12 -2 -19 3 -7 -3 -19 -13 -28 -22 -19 -82 -40
-94 -32 -5 3 -9 1 -9 -5 0 -6 17 -15 39 -21 46 -12 91 -54 91 -86 0 -12 -5
-45 -12 -73 l-11 -51 -93 0 c-70 0 -95 -4 -101 -14 -4 -8 -21 -16 -37 -18 -16
-1 -31 -9 -34 -16 -3 -9 4 -11 25 -7 15 3 61 6 102 6 40 0 82 4 92 10 14 7 19
6 19 -3 0 -9 3 -9 11 -1 6 6 18 9 25 6 8 -3 14 0 14 7 0 8 -9 11 -25 8 -14 -3
-28 -2 -30 2 -7 11 62 23 116 21 47 -2 45 -4 77 62 2 4 -5 7 -15 6 -10 0 -13
-3 -6 -6 10 -3 9 -10 -2 -26 -22 -32 -82 -32 -88 0 -2 12 0 26 5 31 5 5 6 28
2 51 -4 23 -9 39 -12 36 -8 -8 -32 16 -26 26 3 5 -1 9 -9 9 -8 0 -25 9 -38 20
l-24 19 28 1 c15 0 26 4 25 9 -3 8 2 11 19 11 3 0 -2 -9 -12 -20 -16 -17 -16
-20 -2 -26 25 -9 37 4 30 36 -4 22 -1 31 11 36 9 3 16 10 16 16 0 5 -5 6 -11
3 -6 -4 -16 0 -22 10 -7 9 -15 13 -19 10z"/>
<path d="M2386 1749 c-32 -39 -56 -72 -53 -75 4 -4 24 17 99 104 19 21 34 30
45 26 15 -5 16 -4 3 5 -25 18 -32 13 -94 -60z"/>
<path d="M1848 1803 c18 -4 21 -9 16 -26 -6 -19 -5 -20 8 -9 9 7 28 10 49 6
32 -6 33 -5 15 8 -11 9 -27 13 -37 11 -9 -3 -20 0 -23 6 -4 6 -17 10 -29 10
-22 -2 -22 -2 1 -6z"/>
<path d="M2288 1780 c-7 -11 -20 -20 -30 -20 -9 0 -20 -5 -23 -10 -4 -6 -18
-2 -36 10 -23 17 -29 18 -29 6 0 -8 10 -16 23 -18 14 -2 23 -11 25 -27 5 -32
-8 -42 -43 -32 -22 6 -29 13 -27 27 2 14 1 16 -6 5 -6 -9 -12 -10 -16 -3 -4 6
3 16 15 22 11 7 18 14 15 17 -3 3 -13 0 -21 -7 -13 -11 -18 -10 -31 6 -12 15
-12 12 1 -15 14 -27 14 -35 4 -42 -7 -4 -17 -5 -23 -2 -5 3 -6 1 -2 -5 4 -6
14 -8 22 -5 9 3 33 0 55 -7 31 -11 39 -18 40 -39 1 -15 3 -19 6 -10 3 11 11
15 26 12 20 -4 21 -3 4 10 -32 26 1 108 38 93 8 -3 15 -1 15 4 0 6 7 10 15 10
8 0 15 -7 15 -15 0 -8 -5 -14 -11 -12 -6 1 -13 -3 -16 -10 -3 -7 3 -9 16 -6
24 6 28 41 7 49 -8 3 -12 12 -9 20 8 21 -5 17 -19 -6z"/>
<path d="M1320 1737 c0 -20 -4 -25 -16 -20 -17 6 -57 -30 -46 -42 4 -4 -4 -4
-18 -1 -22 6 -23 5 -9 -6 9 -7 14 -20 12 -28 -2 -8 1 -6 8 5 12 19 12 19 20 0
7 -18 8 -17 8 5 1 15 4 20 9 13 10 -15 33 -18 61 -6 17 7 21 12 12 17 -7 5
-19 0 -27 -10 -15 -18 -15 -18 -10 0 5 14 3 16 -6 8 -9 -7 -18 -7 -31 3 -20
14 -16 19 26 29 15 4 25 11 22 15 -3 5 0 11 6 13 7 2 5 9 -5 17 -14 12 -16 10
-16 -12z"/>
<path d="M1814 1716 c-8 -18 -7 -27 4 -42 14 -18 14 -18 9 5 -3 13 -2 33 4 43
5 10 6 18 2 18 -4 0 -13 -11 -19 -24z"/>
<path d="M778 1703 c-29 -5 -37 -17 -15 -27 6 -4 2 -4 -10 -2 -28 5 -53 -21
-29 -30 13 -5 13 -8 1 -20 -7 -8 -17 -14 -22 -14 -4 0 -14 -10 -22 -22 -12
-19 -11 -23 5 -35 10 -7 28 -13 40 -13 25 0 40 26 18 34 -8 3 -14 11 -14 19 0
23 25 67 38 67 7 0 26 7 42 15 29 15 30 14 30 -5 0 -15 8 -22 29 -26 17 -4 32
-12 35 -20 6 -16 26 -19 26 -5 0 18 -50 69 -72 74 -13 2 -30 7 -38 9 -8 3 -27
3 -42 1z"/>
<path d="M1767 1655 c5 -33 4 -35 -23 -36 -24 -1 -25 -3 -6 -6 31 -6 28 -23
-5 -23 -31 0 -28 -5 9 -14 25 -6 27 -3 33 37 3 23 9 50 11 60 4 11 0 17 -10
17 -11 0 -13 -8 -9 -35z"/>
<path d="M478 1673 c6 -2 9 -10 6 -15 -4 -6 -2 -8 4 -4 6 3 18 -2 28 -11 16
-17 16 -18 -14 -27 -33 -9 -44 -26 -17 -26 8 0 15 5 15 11 0 5 4 8 9 5 5 -3 7
-16 4 -29 -4 -13 -2 -19 3 -14 5 5 9 13 9 18 0 5 5 9 10 9 6 0 10 -9 10 -20 1
-22 15 -40 16 -19 0 8 4 6 9 -6 8 -18 9 -18 9 -2 1 17 2 17 17 2 9 -9 15 -17
13 -19 -13 -9 -76 -30 -85 -28 -7 1 -14 -4 -18 -13 -6 -18 -3 -18 38 -5 17 5
43 12 57 15 26 5 40 28 53 88 5 20 3 27 -9 27 -8 0 -15 -4 -15 -10 0 -5 -9
-10 -20 -10 -11 0 -20 -4 -20 -10 0 -21 -27 -9 -39 17 -8 18 -9 29 -1 37 7 7
10 5 10 -6 0 -9 7 -18 15 -22 8 -3 14 0 12 6 -1 7 7 13 18 15 17 3 18 2 5 -7
-12 -9 -12 -11 -1 -8 8 2 15 11 17 20 1 11 -4 14 -17 11 -15 -4 -18 -1 -13 11
6 17 -11 23 -21 7 -6 -11 -45 -10 -45 1 0 4 -6 5 -14 2 -8 -3 -17 -1 -21 5 -3
6 -12 11 -18 10 -9 0 -8 -2 1 -6z"/>
<path d="M688 1653 c-3 -12 -16 -23 -29 -26 -19 -3 -18 -5 8 -6 36 -1 43 6 33
33 -6 19 -7 19 -12 -1z"/>
<path d="M2004 1655 c-10 -8 -14 -15 -7 -15 7 0 10 -7 6 -17 -4 -11 -3 -14 5
-9 7 4 12 2 12 -4 0 -6 8 -19 17 -28 16 -16 16 -16 10 2 -6 14 -4 17 8 12 9
-3 13 -2 10 4 -3 6 -13 10 -21 10 -12 0 -19 26 -15 53 1 10 -3 9 -25 -8z"/>
<path d="M2068 1645 c-3 -14 -2 -28 3 -30 4 -3 9 4 11 15 4 27 22 27 26 0 3
-20 17 -27 26 -12 8 14 -24 52 -43 52 -12 0 -20 -9 -23 -25z"/>
<path d="M1835 1637 c-14 -17 -15 -75 -1 -80 7 -3 11 12 12 44 1 27 1 49 0 49
0 -1 -5 -6 -11 -13z"/>
<path d="M833 1599 c9 -5 17 -15 17 -22 0 -7 5 -19 10 -27 9 -13 11 -13 20 0
14 21 12 30 -5 30 -8 0 -15 7 -15 15 0 9 -9 15 -22 15 -21 -1 -21 -2 -5 -11z"/>
<path d="M1270 1541 c0 -6 -3 -10 -7 -9 -13 2 -43 -14 -43 -23 0 -13 34 -11
48 3 9 9 12 9 12 0 0 -7 8 -12 18 -11 10 0 12 3 5 6 -7 2 -13 11 -13 18 0 8
-4 17 -10 20 -5 3 -10 1 -10 -4z"/>
<path d="M2170 1545 c0 -6 7 -20 15 -31 8 -12 11 -25 7 -29 -4 -5 -1 -5 6 -1
8 5 12 0 12 -15 l0 -22 20 23 c26 30 26 44 0 30 -17 -9 -23 -6 -40 22 -11 18
-20 28 -20 23z"/>
<path d="M2107 1478 c2 -15 -7 -35 -27 -57 -34 -38 -36 -43 -16 -35 7 3 19 16
26 30 7 13 17 24 22 24 4 0 8 14 8 30 0 17 -4 30 -9 30 -4 0 -6 -10 -4 -22z"/>
<path d="M2538 1488 c15 -15 16 -48 2 -48 -5 0 -10 6 -10 13 0 8 -3 8 -9 -2
-5 -8 -7 -19 -5 -26 3 -6 -11 -17 -31 -25 -19 -7 -35 -17 -35 -21 0 -4 26 3
57 17 l58 26 22 -27 c13 -14 23 -37 23 -51 0 -25 25 -34 33 -11 6 19 47 -22
47 -47 0 -12 -9 -30 -21 -39 -11 -10 -18 -25 -15 -33 7 -18 -6 -18 -52 2 -20
9 -48 18 -61 20 -42 5 -51 13 -52 41 -2 24 -2 25 -6 6 -5 -26 -28 -30 -40 -8
-8 14 -53 11 -53 -5 0 -4 42 -19 93 -34 88 -27 110 -41 137 -88 15 -26 -51
-56 -86 -39 -14 6 -33 11 -44 11 -10 0 -22 5 -25 10 -10 16 15 40 41 40 24 0
32 14 14 25 -5 3 -10 1 -10 -4 0 -6 -7 -11 -15 -11 -8 0 -24 -9 -35 -20 l-21
-21 -29 21 c-16 11 -41 34 -57 50 -15 17 -32 30 -37 30 -5 0 1 -11 13 -24 17
-18 21 -30 16 -47 -10 -32 -46 -59 -70 -53 -15 4 -14 1 5 -10 18 -10 27 -11
32 -3 11 19 21 0 14 -28 -6 -23 -10 -25 -41 -19 -22 4 -35 2 -35 -5 0 -19 -40
-34 -56 -20 -12 9 -12 15 -2 27 12 13 10 14 -8 2 -21 -13 -21 -14 -4 -43 10
-16 29 -35 42 -41 21 -11 23 -17 23 -99 0 -63 3 -87 12 -87 14 0 16 8 13 57
-1 28 1 32 17 26 15 -6 16 -4 6 9 -11 12 -9 17 13 26 14 7 33 12 42 12 10 0
23 5 30 12 6 6 20 13 29 15 22 3 64 -17 57 -28 -3 -5 6 -11 20 -15 21 -5 23
-9 14 -24 -7 -10 -22 -23 -35 -29 -13 -6 -23 -17 -23 -26 0 -15 -17 -19 -77
-15 -20 1 -33 -3 -33 -10 0 -8 -10 -11 -24 -8 -17 4 -23 1 -19 -9 7 -17 1 -17
-61 5 -61 21 -87 47 -83 86 1 22 -3 31 -20 37 -23 8 -32 -4 -38 -49 -8 -60
-64 -70 -113 -19 -34 35 -59 57 -65 57 -3 0 -7 -9 -10 -21 -4 -15 0 -23 14
-26 10 -3 19 -12 19 -19 0 -8 14 -17 31 -21 20 -4 28 -10 25 -19 -3 -9 2 -14
14 -14 11 0 20 4 20 9 0 4 19 8 41 8 28 0 45 6 51 16 8 14 13 13 40 -13 17
-17 37 -30 43 -30 7 0 15 -7 19 -15 3 -8 1 -15 -5 -15 -6 0 -7 -5 -4 -10 12
-19 -27 -24 -41 -5 -8 10 -14 14 -14 7 0 -6 10 -21 23 -33 15 -15 18 -23 9
-26 -6 -3 -9 -10 -6 -15 5 -7 2 -8 -6 -3 -18 11 -110 7 -126 -6 -8 -6 -39 -12
-69 -13 -35 -1 -59 -6 -64 -15 -5 -7 -30 -16 -57 -19 -44 -5 -46 -6 -24 -15
l25 -10 -30 -7 c-30 -6 -59 5 -50 20 7 11 -113 30 -150 24 -57 -9 -125 -6
-139 5 -7 6 -21 8 -31 5 -14 -6 -16 -3 -10 14 6 20 4 21 -21 12 -15 -6 -29 -9
-31 -6 -3 2 -20 -2 -38 -10 -50 -20 -70 -18 -106 16 -18 16 -35 27 -38 25 -2
-3 -10 0 -18 7 -8 6 -24 12 -36 14 -83 8 -143 17 -152 24 -5 4 -27 13 -47 19
-38 13 -42 19 -38 56 3 27 9 32 20 15 6 -10 10 -11 10 -3 0 7 -19 21 -42 32
l-43 20 -3 -23 c-2 -12 3 -39 10 -61 10 -31 23 -44 65 -67 55 -30 132 -50 200
-52 33 -1 53 -11 102 -49 34 -26 65 -47 71 -47 5 0 14 9 20 19 16 31 60 35
121 10 61 -24 140 -29 163 -10 28 24 80 17 133 -17 63 -41 87 -40 126 2 28 29
41 35 92 40 33 4 77 12 97 18 21 6 61 8 92 4 58 -6 61 -5 56 37 -5 50 81 106
183 118 64 8 96 32 133 103 13 25 31 43 49 49 33 11 72 51 86 88 8 20 21 30
55 38 24 6 44 15 44 19 0 4 12 7 28 8 124 1 182 5 182 12 0 4 -22 21 -48 38
-26 17 -54 44 -62 60 -21 43 -120 142 -157 159 -18 8 -33 20 -33 28 0 7 -16
27 -36 43 -20 16 -49 39 -64 52 -29 23 -53 31 -32 10z m226 -218 c8 0 19 -7
26 -15 9 -10 9 -15 1 -15 -20 0 -12 -18 11 -26 33 -10 50 -31 46 -56 -2 -18 4
-26 27 -34 27 -10 24 -11 -44 -18 -41 -3 -80 -11 -87 -17 -7 -6 -18 -8 -24 -4
-5 3 -10 1 -10 -4 0 -6 -11 -11 -24 -11 -13 0 -31 -11 -42 -25 -13 -17 -28
-25 -49 -25 -21 0 -26 3 -16 9 11 7 9 10 -8 16 -26 8 -27 21 -3 34 19 10 23
11 52 11 15 0 20 7 20 25 0 17 6 25 18 26 15 1 15 2 0 6 -15 4 -22 43 -8 43
15 0 51 43 46 56 -3 7 3 18 14 24 12 7 17 17 13 28 -3 11 0 9 11 -5 10 -13 23
-23 30 -23z m-380 -106 c20 -8 21 -54 1 -80 -17 -22 -19 -34 -6 -34 8 0 19 23
35 73 5 17 10 15 48 -15 71 -56 88 -74 88 -97 0 -11 -4 -21 -10 -21 -5 0 -10
-6 -10 -14 0 -26 -24 -36 -50 -21 -47 27 -65 33 -74 25 -5 -5 -15 -6 -22 -3
-8 3 -14 -1 -14 -8 0 -20 -76 -50 -89 -36 -12 15 -2 67 12 67 6 0 8 2 5 5 -13
13 -35 -7 -30 -27 5 -21 5 -21 -21 -2 -15 10 -27 24 -27 30 0 12 77 40 86 31
10 -10 40 28 36 45 -6 24 7 88 18 88 4 0 15 -3 24 -6z m241 -164 c3 -5 -3 -10
-14 -10 -12 0 -21 -5 -21 -10 0 -6 -6 -5 -14 2 -8 7 -12 16 -9 21 6 11 51 9
58 -3z"/>
<path d="M2452 1045 c-26 -14 -50 -35 -39 -35 16 0 56 24 61 36 3 8 4 14 3 13
-1 -1 -13 -7 -25 -14z"/>
<path d="M953 1466 c-4 -5 -1 -6 5 -2 6 3 22 2 35 -3 18 -7 27 -7 31 2 3 9 7
9 14 -2 7 -9 12 -10 16 -2 4 6 12 8 18 5 7 -4 8 -2 4 4 -8 13 -115 11 -123 -2z"/>
<path d="M2150 1471 c0 -5 7 -11 15 -15 26 -9 18 -45 -11 -52 -15 -4 -39 -20
-55 -36 l-28 -30 -38 18 c-21 10 -40 21 -43 24 -7 10 -62 19 -77 13 -18 -7
-16 -23 3 -23 8 0 38 -7 66 -17 l50 -16 -5 -43 c-5 -44 5 -75 17 -56 4 6 13 9
21 5 10 -3 15 1 15 13 0 9 7 26 16 35 14 15 20 16 38 7 31 -18 50 -19 37 -4
-6 7 -8 16 -5 19 4 4 -12 9 -35 13 -47 8 -50 13 -18 42 30 28 47 28 48 0 1
-18 3 -16 8 7 5 23 12 30 29 29 12 0 22 3 22 8 0 4 -4 8 -8 8 -4 0 -16 14 -25
30 -17 29 -37 40 -37 21z m-76 -147 c22 -8 20 -26 -4 -47 -28 -23 -30 -22 -30
18 0 35 5 40 34 29z"/>
<path d="M575 1461 c4 -8 -1 -24 -13 -40 -15 -21 -17 -28 -6 -28 8 0 14 4 14
9 0 4 3 7 8 7 20 -3 23 3 11 18 -12 15 -12 16 7 11 22 -6 53 6 43 16 -3 3 -20
9 -39 12 -25 6 -31 4 -25 -5z"/>
<path d="M435 1450 c-23 -10 -20 -12 17 -14 15 -1 30 4 32 11 6 15 -18 16 -49
3z"/>
<path d="M360 1442 c0 -4 14 -20 30 -36 16 -15 36 -44 46 -65 21 -45 42 -65
72 -69 21 -3 19 1 -17 38 -40 41 -46 54 -41 94 1 10 -3 15 -8 12 -6 -4 -13 -2
-16 3 -8 12 -66 32 -66 23z"/>
<path d="M2298 1442 c-14 -2 -29 -10 -32 -19 -5 -12 -2 -13 11 -7 10 4 28 8
41 8 12 1 22 4 22 8 0 11 -13 14 -42 10z"/>
<path d="M2230 1380 c-8 -5 -24 -7 -35 -4 -15 4 -17 3 -6 -5 13 -8 13 -12 0
-28 -8 -10 2 -5 21 11 31 26 35 27 41 10 7 -17 8 -16 8 4 1 24 -6 27 -29 12z"/>
<path d="M1520 1361 c0 -15 27 -32 43 -25 23 8 9 34 -19 34 -13 0 -24 -4 -24
-9z"/>
<path d="M1085 1334 c-19 -14 -17 -15 23 -10 23 3 42 1 42 -3 0 -15 38 -19 44
-5 6 17 -7 26 -27 18 -8 -3 -18 -1 -22 5 -9 15 -37 13 -60 -5z"/>
<path d="M2010 1319 c0 -9 -9 -25 -20 -37 -20 -21 -20 -22 -2 -22 14 0 21 9
26 32 3 17 4 33 1 36 -3 3 -5 -1 -5 -9z"/>
<path d="M1389 1305 c-1 -3 -2 -9 -3 -15 0 -5 -10 -16 -21 -25 -20 -16 -20
-16 0 -13 11 2 25 13 31 26 6 12 14 19 19 14 5 -4 5 -1 1 6 -7 12 -25 17 -27
7z"/>
<path d="M1729 1299 c13 -5 29 -8 35 -6 6 2 21 -10 34 -27 12 -16 22 -25 22
-19 0 6 -9 22 -21 37 -16 20 -29 26 -57 25 -34 0 -35 -1 -13 -10z"/>
<path d="M842 1274 c4 -14 0 -20 -13 -20 -11 0 -19 4 -19 8 0 4 -7 8 -16 8 -8
0 -12 -4 -9 -10 3 -5 1 -11 -4 -11 -21 -3 -26 -4 -38 -12 -7 -5 -13 -15 -13
-23 0 -10 5 -9 20 6 17 17 57 26 98 21 15 -2 16 35 0 45 -7 5 -9 1 -6 -12z"/>
<path d="M555 1258 c33 -24 55 -29 55 -13 0 8 -9 15 -19 15 -11 0 -28 3 -38 6
-16 6 -15 4 2 -8z"/>
<path d="M1437 1256 c-4 -9 -11 -14 -17 -11 -5 3 -10 0 -10 -8 0 -10 7 -13 20
-10 11 3 20 0 20 -6 0 -5 7 -8 16 -4 13 5 13 7 2 14 -10 7 -11 9 0 9 7 0 10 5
7 10 -4 6 -10 8 -15 5 -4 -3 -10 0 -12 7 -3 7 -7 5 -11 -6z"/>
<path d="M630 1233 c0 -8 20 -23 44 -33 50 -23 102 -79 111 -121 4 -16 10 -27
15 -24 5 3 11 1 15 -5 13 -21 23 -9 12 14 -7 13 -15 22 -18 20 -4 -2 -10 7
-13 21 -3 13 -15 29 -26 35 -11 6 -20 14 -20 19 0 4 -15 24 -33 43 -35 37 -87
56 -87 31z"/>
<path d="M1194 1242 c4 -7 1 -12 -8 -12 -9 0 -16 -5 -16 -10 0 -7 6 -7 20 0
12 6 20 7 20 1 0 -11 13 -9 53 7 33 14 36 25 3 12 -26 -10 -44 -9 -65 4 -10 6
-12 5 -7 -2z"/>
<path d="M1320 1220 c0 -6 7 -13 16 -17 9 -3 13 -12 9 -21 -3 -9 -3 -13 1 -9
4 4 14 1 23 -6 14 -10 14 -10 4 4 -7 9 -11 18 -9 20 2 2 -7 12 -20 22 -13 10
-24 13 -24 7z"/>
<path d="M562 1208 c3 -7 14 -14 26 -16 13 -2 19 -8 16 -14 -4 -7 -2 -8 4 -4
7 4 18 4 25 -1 12 -8 17 -9 37 -12 17 -2 79 -68 72 -76 -4 -5 -1 -5 6 -1 17
10 16 11 -17 45 -16 17 -60 44 -97 61 -76 34 -77 34 -72 18z"/>
<path d="M1430 1210 c-1 -8 -2 -20 -1 -26 1 -7 -5 -14 -14 -18 -21 -8 -19 -26
3 -26 14 0 15 2 2 10 -13 9 -13 10 1 10 8 0 20 -5 26 -11 15 -15 34 -3 26 17
-3 8 -8 12 -11 9 -3 -3 -11 7 -18 22 -7 16 -13 22 -14 13z"/>
<path d="M2278 1206 c-10 -7 -18 -19 -18 -26 0 -8 -9 -23 -19 -34 -13 -15 -18
-30 -14 -48 8 -39 19 -35 20 8 1 19 7 43 15 52 14 18 40 62 36 62 -2 0 -11 -7
-20 -14z"/>
<path d="M1164 1163 c12 -25 32 -37 41 -23 3 5 -4 14 -16 21 -17 9 -19 13 -8
20 10 6 8 8 -7 7 -17 -2 -19 -5 -10 -25z"/>
<path d="M1291 1184 c1 -18 18 -49 18 -35 1 11 4 11 19 0 14 -11 15 -11 5 0
-6 7 -10 19 -9 25 2 6 1 7 -2 3 -2 -4 -10 -3 -18 4 -8 6 -14 8 -13 3z"/>
<path d="M1252 1128 c-7 -7 -12 -8 -12 -4 0 5 -7 3 -15 -4 -19 -16 -19 -31 0
-24 8 4 12 11 8 18 -3 6 -2 8 2 3 5 -4 10 -17 12 -29 5 -32 23 -49 44 -43 12
4 21 1 25 -9 9 -23 29 -20 47 7 l15 22 10 -25 c7 -17 11 -19 11 -8 1 9 -4 20
-9 23 -18 11 1 26 23 19 12 -3 19 -3 15 1 -4 4 -32 9 -62 10 -30 1 -63 8 -73
16 -16 13 -17 12 -4 -3 12 -16 11 -18 -5 -18 -15 0 -16 -2 -5 -9 8 -5 9 -11 3
-15 -16 -9 -21 5 -18 47 4 42 4 41 -12 25z"/>
<path d="M1546 1091 c-4 -5 -2 -12 4 -16 6 -4 8 -10 5 -15 -13 -20 16 -18 40
3 23 19 24 23 9 23 -11 1 -26 4 -35 8 -10 4 -20 3 -23 -3z"/>
<path d="M858 1018 c7 -27 72 -94 72 -75 0 7 -13 23 -30 35 -16 13 -30 29 -30
37 0 7 -4 16 -9 19 -5 4 -7 -4 -3 -16z"/>
<path d="M1350 1010 c-8 -15 -17 -19 -33 -15 -20 5 -20 5 -4 -5 13 -8 22 -9
31 -1 7 6 17 7 21 3 5 -4 5 -1 1 6 -4 6 -2 12 3 12 6 0 11 5 11 10 0 17 -19
11 -30 -10z"/>
<path d="M1435 1010 c-3 -5 -17 -10 -31 -10 -23 0 -31 -10 -17 -23 3 -4 13 -1
21 6 12 10 14 9 10 -3 -4 -13 79 -80 101 -80 5 0 11 -7 15 -15 3 -8 12 -15 20
-15 7 0 16 -7 20 -15 3 -8 12 -15 21 -15 14 0 14 3 -2 25 -10 13 -22 25 -26
25 -4 0 -13 5 -20 10 -7 6 -36 29 -65 51 -42 33 -50 44 -41 55 6 8 9 14 6 14
-3 0 -9 -4 -12 -10z"/>
<path d="M1355 960 c3 -5 0 -20 -6 -32 -11 -20 -10 -21 3 -11 8 7 18 10 21 6
4 -3 7 -1 7 5 0 19 -12 42 -22 42 -5 0 -6 -4 -3 -10z"/>
<path d="M1255 929 c-19 -7 -19 -8 3 -8 13 -1 20 -5 17 -11 -3 -5 -1 -10 4
-10 6 0 11 5 11 12 0 6 7 3 16 -8 15 -18 15 -18 5 2 -13 27 -30 34 -56 23z"/>
<path d="M2016 904 c-22 -19 -34 -34 -28 -34 6 0 14 5 17 10 3 6 21 10 38 11
30 1 30 1 7 8 -24 7 -24 7 -5 18 11 6 18 14 15 16 -3 3 -23 -10 -44 -29z"/>
<path d="M1226 898 c3 -4 12 -8 20 -8 8 0 12 -4 9 -10 -3 -6 1 -7 10 -4 11 5
14 2 9 -10 -3 -9 -1 -16 6 -16 6 0 8 -5 4 -12 -4 -7 -3 -8 5 -4 6 4 9 11 6 16
-3 5 3 14 12 20 15 9 15 11 2 6 -9 -2 -25 3 -36 13 -19 18 -57 25 -47 9z"/>
<path d="M1437 889 c-4 -14 -11 -20 -21 -16 -9 4 -16 2 -16 -3 0 -6 5 -10 11
-10 5 0 7 -4 4 -10 -3 -6 1 -7 9 -4 9 3 14 10 11 14 -3 5 3 13 12 19 13 7 15
13 7 21 -8 8 -13 6 -17 -11z"/>
<path d="M1362 853 c-6 -2 -10 -9 -6 -14 3 -5 -4 -9 -15 -9 -11 0 -23 -4 -26
-10 -4 -6 1 -7 11 -3 11 4 15 2 11 -4 -4 -6 0 -14 9 -17 26 -10 33 -7 29 13
-2 14 1 18 10 15 9 -4 13 1 11 12 -3 20 -14 25 -34 17z"/>
<path d="M1635 791 c-28 -7 -85 -50 -85 -64 0 -4 20 7 44 23 24 17 51 30 60
30 9 0 16 5 16 10 0 6 -1 10 -2 9 -2 -1 -17 -4 -33 -8z"/>
<path d="M1338 728 c-3 -7 -2 -21 1 -30 6 -17 7 -17 18 1 10 15 9 22 -1 30
-10 9 -15 8 -18 -1z"/>
<path d="M1404 688 c-3 -5 -4 -12 -1 -14 7 -7 57 7 57 16 0 11 -49 9 -56 -2z"/>
</g>
</svg>
